<?xml version="1.0" encoding="UTF-8"?>
<svg xmlns="http://www.w3.org/2000/svg" viewBox="0 0 1002.39 1002.39">
  <defs>
    <style>
      .cls-1 {
        fill: #e5ba41;
      }

      .cls-1, .cls-2 {
        stroke-width: 0px;
      }

      .cls-2 {
        fill: #d9d9d9;
      }
    </style>
  </defs>
  <g id="Camada_2" data-name="Camada 2">
    <rect class="cls-2" width="1002.39" height="1002.39"/>
  </g>
  <g id="Camada_1" data-name="Camada 1">
    <g>
      <g>
        <path class="cls-1" d="M219.82,188.68c8.09-2.81,16.17-5.7,24.3-8.4l24.46-8.01c8.18-2.59,16.41-5.03,24.63-7.54l12.38-3.63c4.14-1.18,8.25-2.48,12.41-3.56,8.32-2.21,16.62-4.54,25-6.64l12.56-3.22c4.2-1.04,8.41-2.07,12.63-3.05,8.42-2.02,16.94-3.82,25.44-5.69,8.56-1.69,17.1-3.48,25.76-5,17.29-3.08,34.79-5.8,52.75-7.6,4.48-.48,9.03-.83,13.56-1.25,4.54-.37,9.17-.57,13.76-.86,4.65-.19,9.32-.33,14.03-.44h7.15s3.58,0,3.58,0l3.65.13,7.32.28,7.5.55c1.26.11,2.49.17,3.77.32l3.86.44c2.59.33,5.1.54,7.8,1.02,10.52,1.55,21.61,4.03,33.77,8.73l4.65,1.98c1.56.7,3.05,1.29,4.69,2.17,3.22,1.68,6.35,3.25,9.69,5.47l2.45,1.59c.81.53,1.62,1.05,2.46,1.71,1.67,1.25,3.32,2.53,4.95,3.84.41.34.81.64,1.22,1.01l1.23,1.12,2.43,2.28,2.39,2.33c.79.84,1.57,1.73,2.34,2.6.77.88,1.53,1.77,2.28,2.67l1.12,1.36c.36.47.72.97,1.08,1.46,1.42,1.97,2.81,3.96,4.12,6.01,1.25,2.12,2.46,4.29,3.6,6.48,1.12,2.21,2.09,4.51,3.05,6.8,3.67,9.3,5.5,19.14,5.86,28.15.39,9.05-.56,17.29-2.07,24.64-1.52,7.37-3.58,13.91-5.83,19.93-.57,1.47-1.14,3.02-1.74,4.42l-1.81,4.24c-1.24,2.71-2.5,5.43-3.79,7.96-2.59,5.13-5.27,9.98-8.05,14.5-1.38,2.32-2.79,4.47-4.19,6.7-1.41,2.14-2.83,4.33-4.26,6.39-2.86,4.21-5.76,8.19-8.68,12.14-5.83,7.82-11.81,15.19-17.85,22.28-12.07,14.19-24.38,27.35-36.88,40.01-6.24,6.33-12.49,12.55-18.78,18.67-6.31,6.09-12.63,12.1-18.96,18.03-12.63,11.91-25.41,23.45-38.14,34.88-12.7,11.46-25.53,22.63-38.23,33.8-25.44,22.29-50.79,44.2-75.55,66.15-24.73,21.96-48.99,43.95-71.67,66.34-11.29,11.22-22.31,22.43-32.45,33.85-10.17,11.36-19.69,22.8-27.66,34.13-4.01,5.62-7.63,11.19-10.73,16.57-3.04,5.34-5.58,10.55-7.39,15.11-.5,1.17-.84,2.24-1.26,3.34-.31,1.04-.71,2.1-.95,3.05-.57,1.95-.98,3.72-1.2,5.2-.25,1.51-.35,2.78-.45,3.89-.04,1.09-.02,2.02.07,2.96.16,1.85.8,3.77,2.33,6.43,1.64,2.63,4.36,5.81,8.2,9.06,3.89,3.22,8.74,6.52,14.23,9.65,5.5,3.12,11.64,6.04,18.15,8.75,13.04,5.5,27.49,10.07,42.49,14.08,15.02,3.96,30.61,7.38,46.48,10.3,31.76,5.93,64.57,10.17,97.69,13.88,8.29.92,16.6,1.77,24.93,2.57l25.06,2.35c8.37.78,16.76,1.47,25.16,2.14l25.26,2.07c33.74,2.68,67.67,4.98,101.82,8.05l.52.05c1.75.16,3.04,1.7,2.88,3.45-.14,1.56-1.38,2.75-2.88,2.88-16.86,1.51-33.74,2.92-50.63,4.16-16.89,1.22-33.8,2.28-50.72,3.16-33.84,1.76-67.74,2.82-101.68,2.76-16.97-.01-33.95-.41-50.92-1.15-16.97-.74-33.95-1.88-50.89-3.54-16.94-1.7-33.86-3.89-50.69-6.97-16.82-3.05-33.55-7-49.95-12.4-16.36-5.45-32.5-12.39-47.12-22.49-7.26-5.09-14.08-11.06-19.91-18.06-5.72-7.07-10.44-15.19-13.24-24.02-1.41-4.4-2.4-8.93-2.96-13.49-.52-4.57-.63-9.15-.39-13.69.22-4.54.85-9.02,1.73-13.42.41-2.21.97-4.37,1.5-6.54.61-2.14,1.18-4.29,1.89-6.39,5.47-16.89,13.94-32.24,23.32-46.7,9.46-14.44,20.01-28,31.06-41.04,11.06-13.04,22.65-25.55,34.53-37.75,23.77-24.38,48.67-47.49,73.9-70.15,50.46-45.31,102.76-88.31,153-133.36,12.55-11.26,24.96-22.67,37.09-34.32,12.12-11.66,23.99-23.56,35.23-35.94,11.21-12.38,21.93-25.22,30.92-38.96,2.26-3.43,4.35-6.93,6.31-10.47,1.96-3.55,3.74-7.16,5.24-10.83,3.03-7.32,5.04-14.94,4.95-22.25-.05-3.65-.64-7.19-1.83-10.52-.35-.81-.65-1.65-1.03-2.44l-1.22-2.36-1.46-2.24c-.12-.19-.24-.38-.37-.56l-.43-.52-.86-1.05c-2.33-2.75-5.07-5.28-8.26-7.37-1.51-1.14-3.24-2.03-4.9-3.01-.81-.51-1.74-.89-2.61-1.32l-2.65-1.28c-7.24-3.18-15.08-5.41-23.1-7.04-1.98-.48-4.03-.76-6.05-1.13l-3.04-.53c-1.01-.18-2.04-.28-3.06-.43l-6.14-.82-6.19-.6c-16.53-1.55-33.3-1.67-50.06-1.22-16.76.45-33.55,1.65-50.3,3.21-8.38.71-16.75,1.71-25.12,2.6-8.36,1.05-16.73,1.99-25.08,3.18l-12.53,1.69-12.52,1.83c-8.35,1.17-16.67,2.58-25.01,3.87-33.33,5.38-66.53,11.61-99.65,18.31-4.66.94-9.21-2.07-10.15-6.74-.86-4.28,1.6-8.45,5.61-9.85l.99-.34Z"/>
        <polygon class="cls-1" points="242.24 220.61 156.14 216.51 232.75 177.01 242.24 220.61"/>
      </g>
      <path class="cls-1" d="M540.58,740.9c-3.16-2.33-6.97-5.47-10.2-8.15-23.87-20.14-46.07-42.24-66.47-65.9-76.99-88.79-118.28-196.95-75.35-312.55,16.86-46,44.33-87.46,76.66-123.98,4.35-5.18,10.04-10.99,14.67-15.94,4.92-5.13,10.15-10.28,15.24-15.25,4.85-4.78,11.16-10.26,16.16-14.93,0,0,1.36-1.24,1.36-1.24,0,0,.69-.62.69-.62,0,0,.77-.62.77-.62,39.89-33.18,88.76-59.76,142.01-60.67,79.21-1.9,139.04,54.23,170.54,122.32,55.27,120.88,48.57,269.85,14.55,395.09-8.89,31.46-19.79,62.42-34.18,91.82-10.31,21.25-22.33,41.58-37.55,60.04-40.4,49.05-90.98,63.53-146.8,28.9-1.36-.84-5.99-3.89-7.18-4.65,0,0-1.39-.99-1.39-.99-1.41-1.04-4.14-2.94-5.54-3.96-25.81-19.43-47.84-43.63-68.01-68.73h0ZM545.03,736.3c38.82,47.73,107.22,118.02,172.87,79.21,76.46-47.66,97.18-204.11,98.23-287.96,5.01-192.62-73.5-477.6-302.13-274.71-63.56,55.21-117.3,129.98-118.18,217.13.02,2.36-.02,7.5.04,9.78.04,2.02.41,7.67.46,9.77,6.93,97.35,74.84,187.09,148.7,246.78h0Z"/>
    </g>
  </g>
</svg>